<?xml version="1.0" standalone="no"?>
<!DOCTYPE svg PUBLIC "-//W3C//DTD SVG 20010904//EN"
 "http://www.w3.org/TR/2001/REC-SVG-20010904/DTD/svg10.dtd">
<svg version="1.0" xmlns="http://www.w3.org/2000/svg"
 width="1200.000000pt" height="1200.000000pt" viewBox="0 0 1200.000000 1200.000000"
 preserveAspectRatio="xMidYMid meet">
<metadata>
Created by potrace 1.11, written by Peter Selinger 2001-2013
</metadata>
<g transform="translate(0.000000,1200.000000) scale(0.100000,-0.100000)"
fill="#000000" stroke="none">
<path d="M0 6000 l0 -6000 6000 0 6000 0 0 6000 0 6000 -6000 0 -6000 0 0
-6000z m6425 4754 c17 -32 18 -38 4 -62 -22 -39 -75 -50 -286 -57 -103 -3
-372 -14 -598 -25 -225 -11 -565 -26 -755 -35 -190 -8 -397 -17 -460 -20 -63
-4 -124 -6 -135 -6 -11 0 -94 -5 -185 -9 -91 -5 -318 -16 -505 -25 -878 -40
-980 -47 -991 -58 -8 -9 -9 -109 -4 -362 5 -192 15 -768 24 -1280 9 -511 25
-1447 36 -2080 12 -632 21 -1234 20 -1337 l0 -188 25 -16 c14 -9 50 -23 80
-31 30 -7 79 -19 107 -27 51 -13 326 -103 378 -124 14 -5 43 -17 65 -25 62
-23 214 -87 272 -113 81 -37 81 -38 59 61 -7 33 -25 114 -40 180 -27 123 -50
223 -66 285 -5 19 -20 89 -35 155 -27 125 -43 196 -69 305 -9 36 -21 85 -26
110 -20 94 -63 288 -97 430 -8 36 -21 92 -28 125 -12 55 -36 158 -69 305 -7
30 -25 109 -40 175 -14 66 -33 149 -42 185 -21 92 -39 170 -64 280 -12 52 -26
116 -32 141 -18 75 0 117 54 125 52 9 67 -14 127 -189 234 -692 681 -2018 691
-2052 16 -55 130 -389 153 -447 12 -32 25 -58 28 -58 12 0 19 45 19 129 0 46
6 158 14 250 16 184 40 516 77 1076 6 88 22 306 35 485 14 179 29 406 34 505
6 99 14 225 20 280 6 55 14 181 20 280 5 99 16 266 24 370 8 105 17 225 20
267 6 84 16 112 46 128 28 15 46 12 74 -12 l25 -23 6 -515 c3 -283 12 -990 20
-1570 8 -580 15 -1200 15 -1377 0 -197 4 -324 10 -328 5 -3 17 11 26 32 16 38
263 698 285 763 7 19 16 44 20 55 11 27 95 251 110 295 7 19 18 49 25 65 13
28 76 201 114 310 10 28 39 106 65 175 27 69 56 148 66 175 10 28 27 75 39
105 12 30 26 71 32 90 5 19 14 39 19 45 5 5 9 15 9 23 0 8 6 28 14 45 8 18 19
46 24 62 6 17 20 55 32 85 12 30 25 66 30 80 10 28 75 206 96 260 7 19 23 60
34 90 12 30 27 73 35 95 7 22 23 65 35 95 12 30 26 69 31 87 5 18 16 45 24 60
8 15 15 33 15 40 0 7 6 27 14 45 15 35 30 74 67 173 12 33 28 74 35 92 8 17
14 36 14 42 0 6 6 25 14 43 15 36 32 80 67 173 12 33 26 69 30 80 9 20 60 160
81 220 5 17 16 44 24 62 8 17 14 36 14 42 0 20 48 61 71 61 34 0 69 -38 69
-74 0 -29 -44 -191 -110 -401 -15 -49 -31 -106 -35 -125 -4 -19 -10 -39 -14
-45 -3 -5 -11 -28 -17 -50 -12 -41 -30 -103 -63 -215 -10 -36 -30 -105 -45
-155 -14 -49 -31 -106 -37 -125 -7 -19 -16 -48 -20 -65 -8 -30 -16 -57 -84
-285 -20 -69 -43 -145 -50 -170 -21 -75 -64 -220 -94 -320 -16 -52 -39 -129
-51 -170 -21 -72 -59 -199 -101 -340 -11 -36 -27 -90 -36 -120 -8 -30 -21 -73
-28 -95 -6 -22 -19 -65 -28 -95 -30 -105 -60 -205 -72 -245 -7 -22 -20 -65
-29 -95 -32 -111 -84 -286 -95 -325 -19 -61 -37 -122 -65 -220 -15 -49 -39
-133 -55 -185 -16 -52 -39 -129 -51 -170 -12 -41 -35 -117 -51 -168 -16 -51
-29 -98 -29 -103 0 -28 33 2 97 89 39 53 94 126 122 162 74 95 232 301 380
495 72 94 183 238 246 320 63 83 167 218 230 300 63 83 166 218 230 300 63 83
161 210 218 284 56 73 116 151 132 172 17 21 83 107 147 191 64 84 167 218
229 298 61 80 157 206 214 280 184 241 355 464 383 499 15 19 69 88 119 155
51 67 138 180 193 251 101 132 329 429 468 610 141 184 166 202 212 153 37
-40 27 -82 -50 -193 -38 -55 -126 -183 -195 -285 -69 -102 -186 -273 -260
-380 -148 -216 -252 -368 -430 -630 -66 -96 -136 -200 -158 -230 -21 -30 -81
-118 -133 -195 -53 -77 -140 -205 -195 -285 -55 -80 -115 -167 -134 -195 -18
-27 -96 -141 -172 -252 -76 -111 -196 -287 -266 -390 -71 -103 -188 -276 -262
-383 -73 -107 -186 -271 -250 -365 -64 -93 -162 -237 -219 -320 -56 -82 -170
-250 -253 -371 -83 -122 -172 -251 -197 -287 -25 -36 -46 -71 -46 -76 0 -19
24 -12 60 17 31 26 522 379 725 522 44 31 163 116 265 190 102 73 208 149 235
168 54 38 80 57 225 162 145 105 171 124 225 162 28 19 133 95 235 168 102 74
221 159 265 190 95 67 632 452 795 570 63 46 135 98 160 115 25 18 106 75 180
129 74 53 144 99 157 102 48 13 106 -53 84 -94 -12 -23 -159 -146 -840 -705
-86 -70 -185 -152 -221 -182 -59 -49 -216 -178 -405 -334 -103 -84 -297 -244
-401 -330 -50 -42 -147 -121 -214 -176 -67 -55 -157 -129 -199 -165 -43 -36
-122 -101 -176 -145 -124 -101 -329 -270 -420 -345 -281 -234 -339 -281 -452
-372 -61 -48 -84 -86 -45 -74 9 3 58 17 107 30 86 24 124 35 245 70 58 16 169
47 260 72 61 16 132 36 213 59 100 29 302 85 362 101 68 19 137 38 210 59 28
8 86 24 130 36 44 11 100 27 125 35 25 7 106 30 180 50 74 20 158 43 185 51
28 7 73 20 100 27 75 21 154 43 210 60 28 8 95 26 150 40 55 15 111 30 125 35
14 5 86 25 160 46 74 20 155 42 180 49 25 8 74 22 110 31 36 10 94 26 129 36
85 25 117 24 146 -6 60 -59 18 -105 -150 -163 -33 -12 -85 -31 -115 -42 -30
-12 -73 -27 -95 -35 -39 -13 -65 -23 -175 -65 -30 -12 -73 -27 -95 -35 -22 -7
-65 -23 -95 -35 -30 -12 -66 -25 -80 -30 -14 -5 -50 -18 -80 -30 -30 -12 -71
-26 -90 -32 -19 -5 -39 -14 -45 -18 -5 -4 -26 -13 -45 -18 -19 -6 -60 -20 -90
-32 -30 -12 -66 -25 -80 -30 -42 -14 -212 -77 -270 -100 -30 -12 -66 -25 -80
-30 -14 -5 -56 -21 -95 -35 -38 -15 -81 -31 -95 -35 -14 -5 -50 -18 -80 -30
-30 -11 -91 -34 -135 -50 -44 -16 -105 -38 -135 -50 -30 -12 -66 -25 -80 -30
-14 -5 -50 -18 -80 -30 -30 -12 -73 -27 -95 -35 -22 -7 -65 -23 -95 -35 -30
-12 -66 -25 -80 -30 -91 -31 -259 -93 -390 -145 -19 -8 -66 -24 -103 -36 -37
-12 -70 -26 -73 -30 -7 -12 45 -31 63 -25 8 3 134 -1 281 -9 147 -8 335 -17
417 -21 83 -3 188 -8 235 -10 47 -2 141 -6 210 -9 215 -8 837 -35 1285 -56
237 -11 475 -19 530 -19 113 0 159 -18 171 -66 9 -36 -23 -77 -67 -86 -32 -6
-213 -15 -1079 -53 -619 -27 -1233 -55 -1535 -71 -165 -8 -321 -14 -347 -14
-73 0 -60 -22 30 -53 42 -14 122 -42 177 -62 55 -20 118 -42 140 -50 42 -14
301 -106 370 -131 22 -8 78 -28 125 -44 47 -16 110 -38 140 -50 30 -12 93 -34
140 -50 47 -16 97 -33 110 -39 14 -5 72 -26 130 -46 58 -20 114 -41 125 -45
11 -4 65 -24 120 -43 261 -92 311 -109 330 -118 28 -12 104 -39 140 -49 17 -5
75 -25 130 -45 55 -20 118 -43 140 -51 22 -7 58 -20 80 -28 133 -49 273 -99
293 -103 12 -3 34 -19 48 -36 29 -35 27 -71 -8 -100 -23 -20 -45 -21 -102 -6
-149 39 -336 86 -416 104 -30 7 -75 18 -100 24 -25 7 -67 18 -95 26 -27 7
-117 29 -200 49 -146 36 -187 46 -310 80 -71 19 -415 105 -465 116 -34 7 -54
13 -240 60 -47 13 -110 28 -140 35 -73 18 -644 161 -695 175 -88 24 -151 39
-162 40 -21 0 -15 -32 17 -98 17 -34 30 -65 30 -67 0 -3 12 -29 26 -58 14 -28
31 -68 39 -87 7 -19 22 -55 33 -80 53 -115 145 -348 214 -540 41 -114 24 -104
193 -111 83 -4 692 -9 1355 -13 663 -3 1345 -9 1517 -11 l312 -6 10 38 c5 21
14 245 20 498 10 395 21 820 47 1765 3 107 8 247 10 310 3 63 7 207 9 320 3
113 12 455 20 760 8 305 20 758 26 1005 15 617 20 699 44 724 25 29 66 27 96
-5 l24 -26 3 -2828 c2 -2427 0 -2830 -12 -2843 -21 -21 -529 -27 -2270 -27
-826 0 -2342 -5 -3370 -11 -1537 -8 -1871 -8 -1881 3 -15 15 -36 4569 -35
7621 l0 1787 2093 0 2092 0 20 -36z"/>
<path d="M2604 4845 c-4 -8 4 -496 15 -1083 12 -587 25 -1274 28 -1527 3 -280
10 -465 16 -472 7 -10 171 -13 756 -13 410 0 1121 -5 1580 -10 463 -6 838 -7
843 -2 11 11 -17 74 -139 317 -104 208 -112 223 -220 405 -359 604 -805 1124
-1308 1525 -55 44 -102 82 -105 85 -30 32 -411 289 -545 367 -144 84 -360 196
-505 262 -52 24 -103 47 -113 52 -9 5 -47 20 -85 34 -37 14 -76 29 -87 35 -44
20 -98 40 -112 40 -7 0 -16 -7 -19 -15z"/>
</g>
</svg>
